<svg width="34" height="34" viewBox="0 0 34 34" fill="none" xmlns="http://www.w3.org/2000/svg">
<path fill-rule="evenodd" clip-rule="evenodd" d="M10.3333 7H7V5.33333H3.66666V10.3333H30.3333V5.33333H27V7H23.6667V5.33333H10.3333V7ZM30.3333 13.6667H3.66666V30.3333H30.3333V13.6667ZM23.6667 2H10.3333V0.333333H7V2H3.66666C1.82571 2 0.333328 3.49238 0.333328 5.33333V30.3333C0.333328 32.1743 1.82571 33.6667 3.66666 33.6667H30.3333C32.1743 33.6667 33.6667 32.1743 33.6667 30.3333V5.33333C33.6667 3.49238 32.1743 2 30.3333 2H27V0.333333H23.6667V2ZM8.66666 20.3333V17H12V20.3333H8.66666ZM15.3333 20.3333H18.6667V17H15.3333V20.3333ZM22 20.3333V17H25.3333V20.3333H22ZM8.66666 23.6667V27H12V23.6667H8.66666ZM18.6667 27H15.3333V23.6667H18.6667V27Z" fill="#017F36"/>
</svg>
