<svg width="40" height="40" viewBox="0 0 40 40" fill="none" xmlns="http://www.w3.org/2000/svg">
<path fill-rule="evenodd" clip-rule="evenodd" d="M27.3033 11.6667L30.3739 17.8079L35 20.892V26.6667H33.0488C32.3625 24.7247 30.5104 23.3333 28.3334 23.3333C26.1563 23.3333 24.3043 24.7247 23.6179 26.6667H16.3822C15.6958 24.7247 13.8437 23.3333 11.6667 23.3333C9.48966 23.3333 7.63759 24.7247 6.9512 26.6667H5.00002V11.6667H27.3033ZM35 30H33.0488C32.3625 31.942 30.5104 33.3333 28.3334 33.3333C26.1563 33.3333 24.3043 31.942 23.6179 30H16.3822C15.6958 31.942 13.8437 33.3333 11.6667 33.3333C9.48966 33.3333 7.63759 31.942 6.9512 30H5.00002C3.15907 30 1.66669 28.5076 1.66669 26.6667V11.6667C1.66669 9.82572 3.15907 8.33333 5.00002 8.33333H27.3033C28.5659 8.33333 29.7201 9.04667 30.2847 10.176L32.9595 15.5254L38.3334 19.108V26.6667C38.3334 28.5076 36.841 30 35 30ZM13.3334 28.3333C13.3334 29.2538 12.5872 30 11.6667 30C10.7462 30 10 29.2538 10 28.3333C10 27.4129 10.7462 26.6667 11.6667 26.6667C12.5872 26.6667 13.3334 27.4129 13.3334 28.3333ZM30 28.3333C30 29.2538 29.2538 30 28.3334 30C27.4129 30 26.6667 29.2538 26.6667 28.3333C26.6667 27.4129 27.4129 26.6667 28.3334 26.6667C29.2538 26.6667 30 27.4129 30 28.3333Z" fill="#017F36"/>
</svg>
