<svg width="34" height="34" viewBox="0 0 34 34" fill="none" xmlns="http://www.w3.org/2000/svg">
<path fill-rule="evenodd" clip-rule="evenodd" d="M33.6667 16.9985C33.6667 14.1944 31.7827 11.9985 28.6667 11.9985H23.545C23.5599 11.9576 23.5753 11.9155 23.5913 11.8723C23.6377 11.747 23.7682 11.4029 23.895 11.0687L23.8953 11.0679L23.8973 11.0626C24.0087 10.769 24.1168 10.4842 24.1618 10.3633C24.4787 9.51277 24.7099 8.82744 24.8971 8.14872C25.1798 7.1229 25.3333 6.19869 25.3333 5.33184C25.3333 2.8785 23.8198 1.35471 21.5805 0.702652C20.5705 0.408555 19.6913 0.331689 18.6667 0.331842H17.8675L17.3671 0.954983C16.8019 1.6589 15.6917 2.92753 14.4117 4.39012L14.4117 4.39018L14.4117 4.39019C12.0504 7.08838 9.11151 10.4467 7.9506 12.1375C7.64936 12.048 7.3303 12 7.00001 12H3.66668C1.82573 12 0.333344 13.4924 0.333344 15.3333V30.3333C0.333344 32.1743 1.82573 33.6667 3.66668 33.6667H7.00001C8.14522 33.6667 9.15553 33.0892 9.75562 32.2095C10.2612 32.5365 10.8254 32.8094 11.4385 33.0288C12.8424 33.5311 14.2348 33.6853 15.3907 33.6642L27 33.6652C31.5919 33.6652 33.6667 26.9045 33.6667 16.9985ZM12.5615 29.8903C11.0866 29.3626 10.3333 28.5022 10.3333 26.9985V15.3333V15.3318C10.3333 14.9315 10.4074 14.577 10.5695 14.1985C10.8608 13.5185 13.5032 10.5038 16.0077 7.64642L16.0078 7.64635L16.0078 7.6463L16.0078 7.64629C17.3004 6.17155 18.5563 4.73871 19.4333 3.69039C19.8523 3.72182 20.2473 3.78622 20.6486 3.90307C21.6036 4.18117 22 4.58022 22 5.33184C22 5.85948 21.8932 6.50237 21.6836 7.26285C21.5269 7.83114 21.324 8.43246 21.0382 9.19961C20.9977 9.30846 20.8965 9.57511 20.7889 9.85869C20.6577 10.2044 20.517 10.5753 20.4649 10.7161C20.2482 11.3021 20.1054 11.7336 20.0078 12.1257C19.5926 13.7924 20.0091 15.3318 22 15.3318H28.6667C29.8187 15.3318 30.3333 15.9317 30.3333 16.9985C30.3333 24.9831 28.6919 30.3318 27 30.3318H15.3333L15.2718 30.3329C14.5423 30.3459 13.5177 30.2324 12.5615 29.8903ZM3.66668 30.3333V15.3333H7.00001V30.3333H3.66668Z" fill="#017F36"/>
</svg>
