<svg width="64" height="64" viewBox="0 0 64 64" fill="none" xmlns="http://www.w3.org/2000/svg">
  <path d="M6.4 0H57.6C61.12 0 63.968 2.88 63.968 6.4L64 64L51.2 51.2H6.4C2.88 51.2 0 48.32 0 44.8V6.4C0 2.88 2.88 0 6.4 0ZM48 22.4H16C14.24 22.4 12.8 23.84 12.8 25.6C12.8 27.36 14.24 28.8 16 28.8H48C49.76 28.8 51.2 27.36 51.2 25.6C51.2 23.84 49.76 22.4 48 22.4ZM16 38.4H35.2C36.96 38.4 38.4 36.96 38.4 35.2C38.4 33.44 36.96 32 35.2 32H16C14.24 32 12.8 33.44 12.8 35.2C12.8 36.96 14.24 38.4 16 38.4ZM16 19.2H48C49.76 19.2 51.2 17.76 51.2 16C51.2 14.24 49.76 12.8 48 12.8H16C14.24 12.8 12.8 14.24 12.8 16C12.8 17.76 14.24 19.2 16 19.2Z" fill="none" stroke="#017F36" stroke-width="3"/>
</svg>
